<svg width="16" height="16" viewBox="0 0 16 16" fill="none" xmlns="http://www.w3.org/2000/svg">
<path d="M14.2891 3.24084L10.2891 13.5742C10.2496 13.6765 10.1853 13.7675 10.1022 13.8391C10.019 13.9107 9.91945 13.9606 9.81235 13.9845C9.70525 14.0083 9.59392 14.0054 9.48822 13.9759C9.38253 13.9465 9.28574 13.8914 9.20645 13.8155L6.95179 11.6588L5.56912 13.0408C5.52247 13.0873 5.46308 13.119 5.39845 13.1318C5.33383 13.1445 5.26686 13.1379 5.20602 13.1126C5.14517 13.0874 5.09317 13.0447 5.05659 12.9899C5.02 12.9351 5.00047 12.8707 5.00045 12.8048V9.79217L1.53979 6.48217C1.45392 6.40002 1.39158 6.29642 1.3592 6.18208C1.32683 6.06775 1.3256 5.94683 1.35565 5.83186C1.3857 5.7169 1.44594 5.61205 1.53012 5.52818C1.6143 5.44431 1.71937 5.38446 1.83445 5.35484L13.5011 2.35484C13.6197 2.32445 13.7444 2.32732 13.8615 2.36312C13.9786 2.39893 14.0836 2.46629 14.1649 2.55781C14.2462 2.64934 14.3008 2.76149 14.3226 2.88198C14.3444 3.00246 14.3326 3.12662 14.2885 3.24084H14.2891ZM12.6671 4.00084L5.35512 8.76817L6.51179 9.87484L12.6671 4.00084Z" fill="white"/>
</svg>
